<svg id="Layer_1" enable-background="new 0 0 512 512" height="512" viewBox="0 0 512 512" width="512" xmlns="http://www.w3.org/2000/svg"><g><path d="m351 465.905v-76.031c0-4.142-3.358-7.5-7.5-7.5s-7.5 3.358-7.5 7.5v76.031c0 4.142 3.358 7.5 7.5 7.5s7.5-3.358 7.5-7.5zm30 0v-76.031c0-4.142-3.358-7.5-7.5-7.5s-7.5 3.358-7.5 7.5v76.031c0 4.142 3.358 7.5 7.5 7.5s7.5-3.358 7.5-7.5zm10.24-115.881v-53.404c0-9.649-7.851-17.5-17.5-17.5h-13.299c-.596-2.203-1.468-4.359-2.632-6.42l-64.271-113.702c-5.807-10.268-15.161-17.972-26.338-21.694-1.054-.351-16.753-5.482-17.642-5.924-3.928-1.951-6.737-5.071-7.459-9.466 11.721-9.78 19.195-24.486 19.195-40.909v-19.259h13.044c4.142 0 7.5-3.358 7.5-7.5s-3.358-7.5-7.5-7.5h-13.044v-12.38c-.001-18.95-15.417-34.366-34.365-34.366h-37.812c-18.949 0-34.365 15.416-34.365 34.365v12.38h-13.043c-4.142 0-7.5 3.358-7.5 7.5s3.358 7.5 7.5 7.5h13.043v19.259c0 16.467 7.513 31.211 19.289 40.99-.454 4.619-3.406 8.606-7.787 10.361l-38.479 15.39c-17.278 6.909-28.978 23.387-29.808 41.979l-1.532 34.229c-.185 4.138 3.02 7.643 7.157 7.828 4.102.184 7.646-3.003 7.828-7.157l1.532-34.23c.567-12.721 8.572-23.994 20.393-28.721l33.79-13.515c9.33 13.175 24.45 21.122 40.888 21.122 16.899 0 32.275-8.303 41.53-22.044l12.907 4.299c7.647 2.546 14.047 7.819 18.02 14.845l52.419 92.735-21.854 13.691-32.753-52.487c-2.603-5.344-14.171-4.312-13.863 3.971v52.499h-112.817v-52.5c0-4.142-3.358-7.5-7.5-7.5s-7.5 3.358-7.5 7.5v59.681l-1.565 18.53h-27.113l1.929-43.095c.185-4.138-3.019-7.643-7.157-7.828-4.139-.174-7.643 3.019-7.828 7.157-.056 1.251-2.878 63.801-2.878 64.956 0 15.495 12.61 28.1 28.11 28.1 3.869 0 7.578-.813 10.966-2.27l-1.301 15.406c-.411 4.866 1.249 9.72 4.554 13.315 2.388 2.598 5.506 4.38 8.893 5.177l6.964 88.258c-8.155 5.248-13.572 14.397-13.572 24.794 0 8.563 6.966 15.529 15.529 15.529h47.853c2.941 0 5.683-.836 8.029-2.262 2.347 1.426 5.089 2.262 8.029 2.262h47.852c8.563 0 15.529-6.966 15.529-15.529 0-10.399-5.42-19.551-13.578-24.798l6.963-88.252c3.389-.796 6.51-2.58 8.899-5.179 3.305-3.596 4.964-8.449 4.554-13.315l-6.838-80.956v-33.488l31.307 50.169c3.411 5.493 8.82 9.682 15.019 11.62v37.753c-15.944.503-28.761 13.62-28.761 29.682v38.184c0 4.142 3.358 7.5 7.5 7.5s7.5-3.358 7.5-7.5v-38.184c0-8.109 6.597-14.706 14.706-14.706h63.588c8.109 0 14.706 6.597 14.706 14.706v102.588c0 8.109-6.597 14.706-14.706 14.706h-63.588c-8.109 0-14.706-6.597-14.706-14.706v-29.404c0-4.142-3.358-7.5-7.5-7.5s-7.5 3.358-7.5 7.5v29.404c0 16.38 13.326 29.706 29.706 29.706h63.588c16.38 0 29.706-13.326 29.706-29.706v-102.588c0-16.063-12.817-29.18-28.76-29.682zm-221.488-315.659c0-10.678 8.687-19.365 19.365-19.365h37.812c10.678 0 19.365 8.687 19.365 19.365v12.38h-76.542zm0 46.64v-19.259h76.542v19.259c0 21.103-17.168 38.271-38.271 38.271s-38.271-17.169-38.271-38.271zm38.271 73.276c-10.932 0-21.022-5.03-27.614-13.438 3.169-2.954 5.576-6.621 7.049-10.701 6.331 2.66 13.279 4.133 20.565 4.133 7.397 0 14.445-1.519 20.854-4.255 1.564 3.945 4.021 7.469 7.171 10.3-6.567 8.732-16.812 13.961-28.025 13.961zm-74.862 170.544c-.585 6.712-6.31 11.965-13.052 11.965-7.552 0-13.33-6.261-13.097-13.695l.25-5.595h26.517zm66.833 172.175h-47.853c-.292 0-.529-.237-.529-.529 0-7.979 6.492-14.471 14.471-14.471h19.969c7.979 0 14.471 6.492 14.471 14.471 0 .292-.237.529-.529.529zm.529-26.187c-4.278-2.422-9.214-3.813-14.471-3.813-1.297 0-20.017-.019-21.189.031l-6.559-83.132h42.219zm63.381 26.187h-47.852c-.292 0-.529-.237-.529-.529 0-7.979 6.492-14.471 14.471-14.471h19.969c7.979 0 14.471 6.492 14.471 14.471 0 .292-.238.529-.53.529zm-48.381-26.187v-86.914h42.212l-6.559 83.132c-1.071-.06-20.018-.031-21.182-.031-5.257 0-10.193 1.39-14.471 3.813zm53.311-101.914h-53.311v-34.076c0-4.142-3.358-7.5-7.5-7.5s-7.5 3.358-7.5 7.5v34.076h-53.311c-1.658-.065-2.566-1.053-2.491-2.71.041-.026 4.676-55.366 4.694-55.574l1.59-18.825h114.035l6.284 74.399c.079 1.682-.817 2.645-2.49 2.71zm54.638-76.18-4.485-7.187 21.301-13.345 4.46 7.89c2.188 3.875 2.155 8.483-.089 12.327-2.244 3.842-6.24 6.136-10.69 6.136-4.23 0-8.272-2.231-10.497-5.821zm52.768 57.281h-35.48v-37.303c7.023-1.765 13.068-6.247 16.854-12.731 1.096-1.877 1.939-3.839 2.558-5.846h13.568c1.378 0 2.5 1.122 2.5 2.5z"/></g></svg>