<svg id="Layer_1" enable-background="new 0 0 512 512" height="512" viewBox="0 0 512 512" width="512" xmlns="http://www.w3.org/2000/svg"><g><path d="m469.04 233.69h-128.622c5.826-13.379 8.301-28.477 7.671-43.363 15.835.872 30.354-10.787 30.354-27.465 0-5.758-1.785-11.105-4.825-15.525 4.966-3.295 8.251-8.93 8.251-15.324v-13.146c0-10.137-8.247-18.383-18.383-18.383h-15.398v-46.433c.001-29.804-24.246-54.051-54.05-54.051h-76.076c-29.804 0-54.051 24.247-54.051 54.051v46.432h-15.398c-10.137 0-18.383 8.247-18.383 18.383v13.146c0 6.394 3.285 12.029 8.251 15.324-3.04 4.42-4.825 9.767-4.825 15.525 0 16.013 14.185 29.044 30.354 27.465-1.41 14.078 2.322 30.962 7.708 43.363h-128.658c-15.164 0-27.5 12.336-27.5 27.5v73.62c0 15.164 12.336 27.5 27.5 27.5h29.593c-.684 2.717-1.202 5.478-1.545 8.267-3.59-.114-7.181.845-10.31 2.858-5.04 3.243-8.048 8.714-8.048 14.635v22.948h-9.945c-6.765 0-12.724 4.802-14.171 11.417-2.48 11.342-3.62 22.962-3.388 34.538.192 9.595 1.332 19.221 3.387 28.611 1.448 6.616 7.408 11.417 14.171 11.417h9.946v7.5c0 4.142 3.358 7.5 7.5 7.5s7.5-3.358 7.5-7.5v-7.5h4.261c13.77 0 24.973-11.203 24.973-24.973v-36.037c0-13.77-11.203-24.973-24.973-24.973h-4.26v-22.947c.1-1.978 1.911-3.119 4.075-2.223l78.855 35.871v82.782c0 4.142 3.358 7.5 7.5 7.5s7.5-3.358 7.5-7.5v-82.786l82.92-37.722v120.508c0 4.142 3.358 7.5 7.5 7.5s7.5-3.358 7.5-7.5v-120.509c1.843.911 80.944 36.766 82.924 37.725v82.784c0 4.142 3.358 7.5 7.5 7.5s7.5-3.358 7.5-7.5v-82.784l78.854-35.87c2.204-.888 3.97.245 4.072 2.224v22.948h-4.26c-13.77 0-24.973 11.203-24.973 24.973v36.037c0 13.77 11.203 24.973 24.973 24.973h4.261v7.5c0 4.142 3.358 7.5 7.5 7.5s7.5-3.358 7.5-7.5v-7.501h9.946c6.763 0 12.723-4.801 14.171-11.416 2.055-9.391 3.194-19.017 3.387-28.611.232-11.576-.907-23.196-3.388-34.538-1.447-6.615-7.406-11.417-14.171-11.417h-9.945v-22.948c0-5.921-3.009-11.392-8.048-14.635-3.129-2.013-6.72-2.973-10.31-2.859-.343-2.789-.861-5.549-1.545-8.266h29.593c15.164 0 27.5-12.336 27.5-27.5v-73.62c-.002-15.164-12.338-27.5-27.502-27.5zm-412.299 113.62h-13.781c-6.893 0-12.5-5.607-12.5-12.5v-73.62c0-6.893 5.607-12.5 12.5-12.5h13.781zm15.169 78.708c5.499 0 9.973 4.474 9.973 9.973v36.037c0 5.499-4.474 9.973-9.973 9.973h-28.806c-1.795-8.318-2.791-16.837-2.961-25.329-.207-10.271.79-20.582 2.962-30.653h28.805zm396.985 0c2.172 10.071 3.168 20.383 2.962 30.654-.17 8.491-1.167 17.011-2.961 25.328h-28.806c-5.499 0-9.973-4.474-9.973-9.973v-36.037c0-5.499 4.474-9.973 9.973-9.973h28.805zm-58.635-177.328v73.149c-6.641-4.231-14.009-7.318-21.77-9.024l-73.675-16.191c-5.687-1.246-9.814-6.378-9.814-12.204v-9.611c5.767-3.639 11.183-7.925 16.123-12.865 4.113-4.113 7.772-8.556 10.987-13.253h78.149zm-62.17-73.363v-24.931c7.704-1.176 15.354 4.39 15.354 12.465 0 7.928-7.577 13.695-15.354 12.466zm-169.179-121.276c0-21.533 17.518-39.051 39.051-39.051h76.076c21.533 0 39.051 17.518 39.051 39.051v46.432h-154.178zm-15.001 121.276c-7.88.954-15.354-4.195-15.354-12.465 0-8.041 7.687-13.616 15.354-12.465zm-15.397-39.931c-1.866 0-3.383-1.518-3.383-3.383v-13.146c0-1.866 1.518-3.383 3.383-3.383h214.974c1.866 0 3.383 1.518 3.383 3.383v13.146c0 1.866-1.518 3.383-3.383 3.383h-125.799c-4.142 0-7.5 3.358-7.5 7.5s3.358 7.5 7.5 7.5h95.402v46.434c.011 20.677-8.117 40.051-22.573 54.507-4.995 4.995-10.565 9.2-16.546 12.596-11.607 6.591-24.202 9.987-37.971 9.987-42.507 0-77.09-34.583-77.09-77.09v-46.434h23.778c4.142 0 7.5-3.358 7.5-7.5s-3.358-7.5-7.5-7.5zm145.962 163.952-38.475 38.475-38.475-38.475c3.203-4.904 4.744-10.909 4.475-16.935 10.524 4.196 21.997 6.507 34 6.507 11.835 0 23.321-2.239 34-6.478-.513 5.822 1.409 12.197 4.475 16.906zm-192.735-50.658h78.201c7.134 10.43 16.356 19.323 27.058 26.076v9.654c0 5.826-4.127 10.958-9.82 12.205l-73.67 16.19c-7.761 1.706-15.128 4.793-21.77 9.024v-73.149zm-23.447 98.62h-6.552v-98.62h15v86.155c-3.292 3.83-6.111 8.019-8.448 12.465zm79.783 61.339-72.473-32.968c1.379-23.179 18.242-43.185 41.128-48.216l45.32-9.96 58.275 58.275zm195.848 0-72.249-32.868 14.17-14.17c2.929-2.929 2.929-7.678 0-10.606-2.929-2.929-7.678-2.929-10.606 0l-18.161 18.161c-7.089-2.977-15.068-2.977-22.157 0l-55.481-55.481 10.954-2.407c2.046-.448 3.988-1.145 5.826-2.019l43.06 43.06c1.794 1.795 4.181 2.784 6.719 2.784s4.925-.989 6.717-2.783l43.061-43.061c1.837.874 3.777 1.57 5.822 2.018l10.959 2.408-12.334 12.335c-2.929 2.929-2.929 7.678 0 10.606 2.929 2.929 7.678 2.929 10.606 0l19.119-19.119 45.319 9.959c22.886 5.031 39.749 25.037 41.128 48.216zm86.335-61.339h-6.552c-2.333-4.442-5.16-8.638-8.447-12.465v-86.155h15v98.62zm41.281-12.5c0 6.893-5.607 12.5-12.5 12.5h-13.781v-98.62h13.781c6.893 0 12.5 5.607 12.5 12.5zm-184.728-143.501c4.142 0 7.5-3.358 7.5-7.5v-16.325c0-4.142-3.358-7.5-7.5-7.5s-7.5 3.358-7.5 7.5v16.325c0 4.142 3.358 7.5 7.5 7.5zm-89.124-23.825v16.325c0 4.142 3.358 7.5 7.5 7.5s7.5-3.358 7.5-7.5v-16.325c0-4.142-3.358-7.5-7.5-7.5s-7.5 3.358-7.5 7.5zm28.38 70.722c4.16 2.282 10.919 5.021 19.498 5.11 8.65.091 16.093-2.767 20.365-5.11 3.632-1.992 4.961-6.551 2.969-10.183-1.992-3.631-6.551-4.96-10.183-2.969-2.773 1.521-7.287 3.325-12.994 3.263-5.472-.058-9.786-1.806-12.441-3.263-3.633-1.993-8.191-.663-10.183 2.969s-.662 8.191 2.969 10.183z"/></g></svg>