<svg xmlns="http://www.w3.org/2000/svg" width="78" height="79" fill="none" viewBox="0 0 78 79"><g filter="url(#filter0_d_19_377)"><path fill="#fff" fill-rule="evenodd" d="M38.819 66.1508C54.7337 66.1508 67.6351 53.2494 67.6351 37.3347C67.6351 21.42 54.7337 8.51855 38.819 8.51855C22.9043 8.51855 10.0029 21.42 10.0029 37.3347C10.0029 53.2494 22.9043 66.1508 38.819 66.1508Z" clip-rule="evenodd"/></g><path fill="#080809" fill-rule="evenodd" d="M42.4855 34.1642C42.0356 34.0219 41.5182 33.927 41.0458 33.927C40.4609 33.927 39.2012 34.3303 39.2012 35.1131V36.9871H42.193V40.142H39.2012V48.8478H36.1869V40.142H34.7022V36.9871H36.1869V35.3977C36.1869 33.0019 37.2217 31.0093 39.7186 31.0093C40.5734 31.0093 42.1031 31.0567 42.9354 31.3651L42.4855 34.1642Z" clip-rule="evenodd"/><defs><filter id="filter0_d_19_377" width="77.632" height="77.632" x=".003" y=".519" color-interpolation-filters="sRGB" filterUnits="userSpaceOnUse"><feFlood flood-opacity="0" result="BackgroundImageFix"/><feColorMatrix in="SourceAlpha" result="hardAlpha" type="matrix" values="0 0 0 0 0 0 0 0 0 0 0 0 0 0 0 0 0 0 127 0"/><feOffset dy="2"/><feGaussianBlur stdDeviation="5"/><feColorMatrix type="matrix" values="0 0 0 0 0 0 0 0 0 0 0 0 0 0 0 0 0 0 0.1 0"/><feBlend in2="BackgroundImageFix" mode="normal" result="effect1_dropShadow_19_377"/><feBlend in="SourceGraphic" in2="effect1_dropShadow_19_377" mode="normal" result="shape"/></filter></defs></svg>