<?xml version="1.0" encoding="utf-8"?>
<!-- Generator: Adobe Illustrator 25.0.1, SVG Export Plug-In . SVG Version: 6.00 Build 0)  -->
<svg version="1.0" id="katman_1" xmlns="http://www.w3.org/2000/svg" xmlns:xlink="http://www.w3.org/1999/xlink" x="0px" y="0px"
	 viewBox="0 0 312 222" style="enable-background:new 0 0 312 222;" xml:space="preserve">
<style type="text/css">
	.st0{fill-rule:evenodd;clip-rule:evenodd;fill:#34D186;}
	.st1{fill-rule:evenodd;clip-rule:evenodd;fill:#2F313F;}
</style>
<desc>Created with Sketch.</desc>
<g id="Landing-Page">
	<g id="Landing-Desktop" transform="translate(-588.000000, -40.000000)">
		<g id="Logo-Horizontal" transform="translate(588.000000, 40.000000)">
			<g id="Shape" transform="translate(-0.000000, 0.000000)">
				<path class="st0" d="M110.7,79v48.1H99.3V81.4L110.7,79z M78.4,115.8c3.1,0,5.7-2.5,5.7-5.7c0-3.1-2.5-5.7-5.7-5.7
					c-3.1,0-5.7,2.5-5.7,5.7C72.8,113.3,75.3,115.8,78.4,115.8z M78.4,92.7c9.6,0,17.5,7.8,17.5,17.5c0,9.7-7.8,17.5-17.5,17.5
					c-9.7,0-17.5-7.8-17.5-17.5C61,100.5,68.8,92.7,78.4,92.7z M78.4,131.7c3.1,0,5.7,2.5,5.7,5.7s-2.5,5.7-5.7,5.7
					c-3.1,0-5.7-2.5-5.7-5.7S75.3,131.7,78.4,131.7z M53.2,101.7c2.7,2.7,4.4,6.4,4.4,10.6c0,8.2-6.6,14.9-14.9,14.9H23V79h17.6
					c8.2,0,14.9,6.7,14.9,14.9C55.5,96.7,54.7,99.4,53.2,101.7z M42.8,115.8c1.9,0,3.5-1.6,3.5-3.5c0-1.9-1.6-3.5-3.5-3.5h-8.5v7.1
					H42.8z M34.3,90.3v7.1h6.3c1.9,0,3.5-1.6,3.5-3.5c0-1.9-1.6-3.5-3.5-3.5H34.3z M132,104.6h-5.6v8.9c0,2.7,0.9,4.7,3.1,4.7
					c1.5,0,2.5-0.3,2.5-0.3v8.3c0,0-2.3,1.4-5.5,1.4h-0.1c-0.1,0-0.3,0-0.4,0h-0.1c-0.1,0-0.1,0-0.2,0c-6.3-0.3-10.6-4.3-10.6-11.2
					V87.1l11.3-2.4v8.6h5.7V104.6z"/>
				<path class="st1" d="M197.2,115.8c3.1,0,5.7-2.5,5.7-5.7c0-3.1-2.5-5.7-5.7-5.7c-3.1,0-5.7,2.5-5.7,5.7
					C191.5,113.3,194,115.8,197.2,115.8z M197.2,92.7c9.7,0,17.5,7.8,17.5,17.5c0,9.7-7.8,17.5-17.5,17.5c-9.7,0-17.5-7.8-17.5-17.5
					C179.7,100.5,187.5,92.7,197.2,92.7z M234.2,115.8c3.1,0,5.7-2.5,5.7-5.7c0-3.1-2.5-5.7-5.7-5.7c-3.1,0-5.7,2.5-5.7,5.7
					C228.5,113.3,231.1,115.8,234.2,115.8z M234.2,92.7c9.7,0,17.5,7.8,17.5,17.5c0,9.7-7.8,17.5-17.5,17.5
					c-9.7,0-17.5-7.8-17.5-17.5C216.7,100.5,224.5,92.7,234.2,92.7z M161.1,108.7v18.4h-11.3V79H180v11.3h-18.9v7.1h15.5v11.3H161.1
					z M277.2,124.2c-1.9,1.8-4.4,2.9-7.4,2.9c-8.9,0-16.1-7.7-16.1-17.2c0-9.5,7.2-17.2,16.1-17.2c3.1,0,5.5,1.1,7.4,2.9V79h11.3
					v48.1h-11.3V124.2L277.2,124.2z M271.1,115.6c3.2,0,5.7-2.6,5.7-5.7s-2.6-5.7-5.7-5.7c-3.2,0-5.7,2.6-5.7,5.7
					S267.9,115.6,271.1,115.6z"/>
			</g>
		</g>
	</g>
</g>
</svg>
